<?xml version="1.0" encoding="UTF-8" standalone="no"?>
<svg width="1064" height="1064" viewBox="0 0 1064 1064" fill="none" xmlns="http://www.w3.org/2000/svg">
<g filter="url(#filter0_d_58_27)">
<path fill-rule="evenodd" clip-rule="evenodd" d="M457.252 23.919C402.12 31.9588 350.234 48.4677 298.574 74.4062C269.844 88.8331 265.88 94.175 290.829 84.8415C314.132 76.1266 357.663 68.0868 393.533 65.8777C411.018 64.7986 425.321 64.6969 425.321 65.6461C425.321 66.5981 415.793 73.8017 404.149 81.6578C340.291 124.738 277.998 189.728 246.378 246.258C204.528 321.076 196.266 406.191 223.174 485.287C254.029 575.987 335.194 670.667 426.7 722.711C534.879 784.232 690.023 804.614 802.74 772.107C873.06 751.827 933.764 708.911 955.756 663.932C962.543 650.054 963.518 644.714 963.552 621.234C963.597 590.803 958.686 577.06 940.735 557.373C931.877 547.658 930.916 547.198 932.524 553.435C939.568 580.786 939.763 583.964 935.61 603.874C921.547 671.305 860.721 718.745 765.802 736.316C730.804 742.793 645.475 742.802 610.395 736.333C527.75 721.086 465.952 690.204 413.9 638.129C335.632 559.831 299.744 444.201 324.425 349.831C346.366 265.942 397.802 194.231 470.298 146.465C513.628 117.913 558.021 104.322 614.634 102.28C664.121 100.492 696.668 106.698 734.209 125.077C755.988 135.738 809.041 173.567 806.201 176.409C805.718 176.889 797.069 175.355 786.976 172.996C760.224 166.75 683.416 169.166 653.663 177.188C599.209 191.875 563.954 211.489 528.321 246.93C507.55 267.592 500.232 277.273 489.277 298.598C447.335 380.253 450.124 499.228 495.782 576.063C509.039 598.377 535.837 628.338 549.835 636.502C558.908 641.793 559.024 641.793 556.718 636.502C532.743 581.512 532.356 525.491 555.633 479.281C568.099 454.529 578.023 440.769 597.313 421.483C637.58 381.225 689.966 359.865 734.72 365.456C743.268 366.524 750.261 368.275 750.261 369.346C750.261 370.419 741.94 373.679 731.768 376.592C689.477 388.702 648.851 424.181 631.839 463.865C621.703 487.501 616.888 517.262 617.934 549.768C618.784 576.145 620.014 582.651 627.015 597.849C650.411 648.63 721.655 679.453 784.736 666.085C827.289 657.068 849.738 627.81 843.663 589.278C839.419 562.342 823.398 550.622 790.813 550.616C774.004 550.61 768.011 551.98 755.101 558.769L739.589 566.927L742.378 556.65C747.107 539.209 764.716 508.42 777.451 495.318C806.035 465.913 838.766 453.379 887.301 453.255C912.638 453.187 921.908 454.388 937.458 459.749C978.691 473.964 1012.63 509.53 1032.95 559.811C1037.27 570.498 1040.3 574.857 1041.78 572.523C1045.03 567.407 1044.63 509.875 1041.13 477.758C1024.47 325.082 944.14 191.296 818.346 106.709C751.945 62.0612 681.388 34.9391 602.447 23.7185C566.972 18.676 492.51 18.7805 457.252 23.919ZM151.241 189.593C100.149 247.637 66.793 305.322 43.7364 375.524C25.4578 431.175 20.1344 466.337 20.0016 532.248C19.8377 614.9 32.0414 673.02 65.0779 746.943C77.0979 773.839 102.686 815.617 108.125 817.23C182.039 839.123 303.533 860.844 336.197 858.005L346.456 857.115L320.28 838.753C290.646 817.965 243.159 773.565 219.071 744.118C99.4848 597.934 71.0766 391.061 147.05 219.664C154.176 203.585 161.851 187.615 164.1 184.174C173.981 169.075 166.547 172.205 151.241 189.593ZM150.467 375.465C145.324 393.858 150.359 471.007 159.596 515.333C173.133 580.306 206.065 655.873 243.806 708.558C282.299 762.302 336.451 812.775 390.001 844.827L418.257 861.74L457.744 859.977C500.178 858.084 550.587 852.59 589.204 845.649C622.116 839.733 686.166 824.448 689.014 821.832C690.294 820.654 674.247 819.583 653.352 819.45C553.421 818.818 460.505 789.611 373.613 731.522C341.237 709.877 290.759 663.54 264.334 631.206C208.891 563.368 171.966 480.928 156.118 389.589C153.236 372.979 152.015 369.928 150.467 375.465ZM983.37 733.318C749.128 891.972 461.525 948.084 191.237 887.865C173.605 883.938 158.604 881.297 157.903 882C155.53 884.373 208.995 932.123 234.595 950.49C265.459 972.638 327.771 1004.47 363.641 1016.41C511.63 1065.67 667.5 1048.54 800.172 968.42C853.609 936.151 910.954 882.72 948.813 829.928C968.03 803.128 1009.09 726.312 1007.07 720.931C1006.47 719.324 995.803 724.897 983.37 733.318Z" fill="#4040BF"/>
<path fill-rule="evenodd" clip-rule="evenodd" d="M457.252 23.919C402.12 31.9588 350.234 48.4677 298.574 74.4062C269.844 88.8331 265.88 94.175 290.829 84.8415C314.132 76.1266 357.663 68.0868 393.533 65.8777C411.018 64.7986 425.321 64.6969 425.321 65.6461C425.321 66.5981 415.793 73.8017 404.149 81.6578C340.291 124.738 277.998 189.728 246.378 246.258C204.528 321.076 196.266 406.191 223.174 485.287C253.885 575.563 335.253 670.715 425.73 722.154C534.876 784.207 689.664 804.716 802.74 772.107C873.06 751.827 933.764 708.911 955.756 663.932C962.543 650.054 963.518 644.714 963.552 621.234C963.597 590.803 958.686 577.06 940.735 557.373C931.866 547.647 930.913 547.189 932.504 553.435C933.496 557.32 935.525 565.388 937.017 571.362C940.611 585.789 935.87 612.081 925.729 633.946C901.762 685.617 845.649 721.536 765.802 736.316C730.804 742.793 645.475 742.802 610.395 736.333C527.75 721.086 465.952 690.204 413.9 638.129C335.476 559.678 299.829 444.755 324.476 349.831C346.199 266.177 397.769 194.254 470.298 146.465C513.628 117.913 558.021 104.322 614.634 102.28C664.121 100.492 696.668 106.698 734.209 125.077C755.988 135.738 809.041 173.567 806.201 176.409C805.718 176.889 797.069 175.355 786.976 172.996C760.224 166.75 683.416 169.166 653.663 177.188C599.209 191.875 563.954 211.489 528.321 246.93C507.55 267.592 500.232 277.273 489.277 298.598C447.267 380.383 450.183 499.327 496.09 576.58C509.082 598.445 535.956 628.409 549.835 636.502C558.908 641.793 559.024 641.793 556.718 636.502C532.743 581.512 532.356 525.491 555.633 479.281C568.099 454.529 578.023 440.769 597.313 421.483C637.58 381.225 689.966 359.865 734.72 365.456C743.268 366.524 750.261 368.275 750.261 369.346C750.261 370.419 741.94 373.679 731.768 376.592C689.477 388.702 648.851 424.181 631.839 463.865C621.703 487.501 616.888 517.262 617.934 549.768C618.784 576.145 620.014 582.651 627.015 597.849C650.411 648.63 721.655 679.453 784.736 666.085C827.289 657.068 849.738 627.81 843.663 589.278C839.419 562.342 823.398 550.622 790.813 550.616C774.004 550.61 768.011 551.98 755.101 558.769L739.589 566.927L742.378 556.65C747.107 539.209 764.716 508.42 777.451 495.318C806.035 465.913 838.766 453.379 887.301 453.255C912.638 453.187 921.908 454.388 937.458 459.749C978.691 473.964 1012.63 509.53 1032.95 559.811C1037.27 570.498 1040.3 574.857 1041.78 572.523C1045.03 567.407 1044.63 509.875 1041.13 477.758C1024.47 325.082 944.14 191.296 818.346 106.709C751.945 62.0612 681.388 34.9391 602.447 23.7185C566.972 18.676 492.51 18.7805 457.252 23.919ZM151.241 189.593C100.149 247.637 66.793 305.322 43.7364 375.524C25.4578 431.175 20.1344 466.337 20.0016 532.248C19.8377 614.9 32.0414 673.02 65.0779 746.943C77.0979 773.839 102.686 815.617 108.125 817.23C182.039 839.123 303.533 860.844 336.197 858.005L346.456 857.115L320.28 838.753C290.646 817.965 243.159 773.565 219.071 744.118C99.4848 597.934 71.0766 391.061 147.05 219.664C154.176 203.585 161.851 187.615 164.1 184.174C173.981 169.075 166.547 172.205 151.241 189.593ZM150.554 375.465C145.304 393.454 150.297 470.71 159.596 515.333C173.133 580.306 206.065 655.873 243.806 708.558C282.299 762.302 336.451 812.775 390.001 844.827L418.257 861.74L457.744 859.977C500.178 858.084 550.587 852.59 589.204 845.649C622.116 839.733 686.166 824.448 689.014 821.832C690.294 820.654 674.247 819.583 653.352 819.45C553.421 818.818 460.505 789.611 373.613 731.522C341.237 709.877 290.759 663.54 264.334 631.206C229.221 588.244 196.645 530.084 178.502 477.973C169.248 451.396 155.502 395.793 153.51 376.877C152.625 368.51 152.589 368.49 150.554 375.465ZM983.37 733.318C749.128 891.972 461.525 948.084 191.237 887.865C173.605 883.938 158.604 881.297 157.903 882C155.53 884.373 208.995 932.123 234.595 950.49C265.459 972.638 327.771 1004.47 363.641 1016.41C511.63 1065.67 667.5 1048.54 800.172 968.42C853.609 936.151 910.954 882.72 948.813 829.928C968.03 803.128 1009.09 726.312 1007.07 720.931C1006.47 719.324 995.803 724.897 983.37 733.318Z" fill="url(#paint0_linear_58_27)"/>
</g>
<defs>
<filter id="filter0_d_58_27" x="0" y="0" width="1064" height="1064" filterUnits="userSpaceOnUse" color-interpolation-filters="sRGB">
<feFlood flood-opacity="0" result="BackgroundImageFix"/>
<feColorMatrix in="SourceAlpha" type="matrix" values="0 0 0 0 0 0 0 0 0 0 0 0 0 0 0 0 0 0 127 0" result="hardAlpha"/>
<feOffset/>
<feGaussianBlur stdDeviation="10"/>
<feComposite in2="hardAlpha" operator="out"/>
<feColorMatrix type="matrix" values="0 0 0 0 0.160784 0 0 0 0 0.521569 0 0 0 0 0.772549 0 0 0 0.31 0"/>
<feBlend mode="normal" in2="BackgroundImageFix" result="effect1_dropShadow_58_27"/>
<feBlend mode="normal" in="SourceGraphic" in2="effect1_dropShadow_58_27" result="shape"/>
</filter>
<linearGradient id="paint0_linear_58_27" x1="532" y1="20" x2="532" y2="1044" gradientUnits="userSpaceOnUse">
<stop offset="0.005" stop-color="#25AAE1"/>
<stop offset="0.61" stop-color="#1E4C81"/>
<stop offset="1" stop-color="#2E6D98"/>
</linearGradient>
</defs>
</svg>