<svg width="256" height="256" viewBox="0 0 74 74" fill="none" xmlns="http://www.w3.org/2000/svg">
<path d="M36.62 14c-.84 0-1.52.68-1.52 1.52 0 3.63-2.95 6.58-6.58 6.58a1.52 1.52 0 1 0 0 3.04c3.63 0 6.58 2.95 6.58 6.58a1.52 1.52 0 1 0 3.04 0c0-3.63 2.95-6.58 6.58-6.58a1.52 1.52 0 1 0 0-3.04c-3.63 0-6.58-2.95-6.58-6.58 0-.84-.68-1.52-1.52-1.52zM39.52 41.95c2.97 0 5.39 2.42 5.39 5.39a1.52 1.52 0 1 0 3.04 0c0-2.97 2.42-5.39 5.39-5.39a1.52 1.52 0 1 0 0-3.04c-2.97 0-5.39-2.42-5.39-5.39a1.52 1.52 0 1 0-3.04 0c0 2.97-2.42 5.39-5.39 5.39a1.52 1.52 0 1 0 0 3.04zM51.082 27.082a3.842 3.842 0 0 1 3.836 3.836 1.081 1.081 0 1 0 2.164 0 3.842 3.842 0 0 1 3.836-3.836 1.081 1.081 0 1 0 0-2.164 3.843 3.843 0 0 1-3.836-3.836 1.081 1.081 0 1 0-2.164 0 3.843 3.843 0 0 1-3.836 3.836 1.081 1.081 0 1 0 0 2.164z M73.64 52.81c.67-1.3.39-2.81-.7-3.77-1.08-.96-2.61-1.05-3.82-.24-5.64 3.81-12.25 5.64-19.09 5.27-15.67-.82-28.6-13.75-29.42-29.42-.36-6.85 1.46-13.45 5.27-19.09.81-1.2.72-2.74-.24-3.82-.96-1.08-2.47-1.36-3.77-.7C8.56 7.88.37 21.96 1.01 36.92c.83 19.77 16.98 35.91 36.75 36.75.54.02 1.08.03 1.61.03 14.35 0 27.68-8.07 34.26-20.9l.01.01z" fill="#FFF"/>
</svg>